<svg
   xmlns="http://www.w3.org/2000/svg"
   width="1000"
   height="315.76"
   viewBox="0 0 1000 315.76">
  <g
     fill="#000000"
     fill-rule="evenodd"
     transform="matrix(2.2680638,0,0,2.2680638,-1.0437023,-0.37876665)">
    <path
       d="m 156.166,48.725 v 25.381 l -24.362,-25.268 -0.101,-0.113 h -3.205 v 42.173 h 8.75 V 65.793 l 24.08,24.987 0.114,0.118 H 164.9 V 48.725 h -8.734 m 29.132,42.172 h 8.712 V 48.691 h -8.712 z m 43.195,-42.172 -16.052,41.626 -0.207,0.547 h 9.334 l 2.388,-6.347 h 17.572 l 2.39,6.347 9.314,-0.034 -16.147,-41.895 -0.095,-0.244 z m 4.451,12.111 5.493,14.68 -11.248,0.133 z m 66.039,-12.111 v 25.381 l -24.362,-25.268 -0.109,-0.113 h -3.197 v 42.173 h 8.745 V 65.793 l 24.077,24.987 0.117,0.118 h 3.459 V 48.725 h -8.73 m 26.821,0 v 8.522 h 13.292 v 33.651 h 8.738 V 57.247 h 13.302 v -8.522 h -35.332 m 53.656,42.172 h 8.705 V 48.691 h -8.705 z m 55.807,-12.262 c -2.535,2.126 -4.483,3.197 -7.957,3.197 -3.454,0 -6.285,-1.101 -8.396,-3.281 -2.115,-2.173 -3.192,-5.162 -3.214,-8.875 0,-3.471 1.071,-6.352 3.177,-8.552 2.106,-2.217 4.927,-3.348 8.386,-3.365 3.405,0 5.375,1.089 8.004,3.232 l 0.277,0.222 5.821,-6.604 -0.293,-0.264 c -4.116,-3.73 -8.029,-5.621 -13.809,-5.621 -5.714,0 -10.576,2.041 -14.444,6.058 -3.869,4.031 -5.844,9.058 -5.856,14.951 0,6.016 1.967,11.099 5.839,15.104 3.88,3.991 8.739,6.038 14.461,6.06 5.773,0 9.691,-1.893 13.809,-5.611 l 0.293,-0.262 -5.821,-6.624 -0.277,0.235 M 85.649,50.201 A 34.893,34.893 0 0 0 88.4,41.429 c 8.57,4.393 12.518,7.689 13.229,9.048 -1.463,0.78 -6.829,1.045 -15.98,-0.276 z M 50.038,23.41 c -8.334,2.654 -16.25,5.579 -23.232,8.561 0.389,-12.738 9.005,-22.923 19.588,-22.923 5.752,0 10.926,3.007 14.513,7.797 0.676,0.902 1.276,1.884 1.83,2.906 -7.017,1.861 -12.184,3.495 -12.699,3.659 z M 5.987,20.02 c 1.368,-0.702 6.496,-1.101 16.02,0.27 a 34.918,34.918 0 0 0 -2.802,8.753 C 10.962,24.826 6.73,21.503 5.987,20.02 Z m 23.582,40.785 a 35.34,35.34 0 0 0 7.913,5.665 l 3.947,30.31 c -0.166,-0.075 -0.323,-0.151 -0.495,-0.225 a 29.672,29.672 0 0 0 -1.612,-0.64 l -0.026,-0.01 C 39.01,95.803 38.719,95.716 38.431,95.621 L 28.476,61.462 c -0.19,-0.653 0.599,-1.126 1.093,-0.657 z m 17.813,16.124 0.166,0.674 C 47.703,78.2 48.237,78.9 49.44,78.9 h 8.705 c 1.203,0 1.737,-0.7 1.892,-1.297 l 0.166,-0.674 c 0.743,-3.227 2.553,-6.803 6.791,-9.001 l -3.52,27.034 C 56.943,90.601 51.017,89.979 48.885,89.909 a 0.56,0.56 0 0 0 -0.058,0 c -0.413,0.019 -0.726,0.377 -0.669,0.776 l 1.688,11.616 c 0.006,0.039 -0.042,0.061 -0.071,0.034 A 29.162,29.162 0 0 0 44.8,98.545 L 44.798,98.543 44.559,98.404 40.591,67.929 c 4.238,2.198 6.048,5.773 6.791,9 z M 78.016,60.805 c 0.494,-0.469 1.283,0.004 1.093,0.657 L 68.228,98.798 A 36.557,36.557 0 0 0 66.594,97.316 C 66.592,97.314 66.59,97.315 66.591,97.312 V 97.31 C 66.434,97.178 66.287,97.06 66.136,96.936 L 70.103,66.47 a 35.34,35.34 0 0 0 7.913,-5.665 z m -11.405,41.379 c -1.83,4.321 -6.647,7.502 -11.718,8.5 -0.191,0.038 -0.391,-0.027 -0.418,-0.211 L 52.079,93.984 c -0.028,-0.192 0.151,-0.345 0.351,-0.305 3.839,0.758 10.335,4.169 13.943,7.818 0.304,0.307 0.28,0.588 0.238,0.687 z m -6.724,20.319 -12.104,0.658 -1.122,-8.617 1.413,-0.143 3.437,-0.347 a 0.043,0.043 0 0 1 0.048,0.035 l 0.33,2.276 c 0.051,0.348 0.372,0.598 0.736,0.582 l 0.042,-0.003 6.966,-0.7 v -0.003 l 1.084,-0.108 z M 35.382,112.412 a 0.23,0.23 0 0 1 -0.254,-0.183 l -2.59,-14.344 c -0.027,-0.145 0.103,-0.276 0.256,-0.257 7.289,0.921 14.455,5.447 17.884,11.068 0.086,0.142 0.141,0.296 0.164,0.458 l 0.225,1.549 c 0.009,0.067 -0.041,0.126 -0.112,0.133 z M 88.937,35.696 c 0.001,-0.124 0.014,-0.246 0.014,-0.371 0,-0.175 -0.018,-0.346 -0.02,-0.52 13.346,-6.464 19.412,-12.002 17.991,-16.465 -0.836,-2.623 -3.991,-4.073 -9.379,-4.309 a 38.911,38.911 0 0 0 -1.662,-0.034 c -3.865,0 -8.45,0.523 -13.199,1.32 C 76.334,6.168 65.771,0.167 53.792,0.167 41.818,0.167 31.248,6.158 24.9,15.301 10.267,12.854 2.118,13.867 0.697,18.331 -0.121,20.9 0.443,25.194 14.713,32.802 c 1.243,0.662 2.569,1.329 3.934,1.997 -0.002,0.176 -0.013,0.35 -0.013,0.526 0,0.124 0.007,0.246 0.009,0.369 -1.368,0.67 -2.683,1.339 -3.93,2.003 -14.27,7.607 -14.834,11.902 -14.016,14.47 1.382,4.341 9.121,5.42 22.996,3.228 l 11.462,39.332 a 24.19,24.19 0 0 0 -1.459,-0.265 l -0.03,-0.004 A 24.886,24.886 0 0 0 29.08,94.217 h -0.002 a 0.585,0.585 0 0 0 -0.562,0.676 l 3.717,20.577 a 0.587,0.587 0 0 0 0.65,0.468 l 8.05,-0.815 0.161,-0.016 2.416,8.288 -0.655,0.035 c -1.217,0.05 -1.641,-0.189 -2.359,-0.723 -0.802,-0.598 -1.007,-1.128 -2.113,-1.069 l -7.398,0.316 a 0.633,0.633 0 0 0 -0.608,0.636 c 0.008,2.965 1.506,12.564 7.606,12.888 0.433,0.023 1.022,0.004 1.733,-0.002 1.988,4.465 6.06,3.943 7.228,3.838 3.772,-0.336 23.375,-6.609 25.303,-8.042 1.973,-1.465 3.999,-6.487 3.999,-6.487 0,0 5.873,-2.016 9.064,-2.932 0.427,-0.123 0.316,-0.755 -0.128,-0.727 l -20.775,1.131 1.949,-6.69 1.518,-0.152 10.178,-1.023 c 0.324,-0.034 0.524,-0.364 0.396,-0.649 -2.17,-4.814 -4.635,-8.652 -7.201,-11.722 -0.236,-0.284 -0.471,-0.539 -0.708,-0.807 L 82.656,59.637 c -9.339,-1.403 -19.639,-4.035 -26.658,-6.006 -2.839,1.941 -6.113,3.053 -9.604,3.053 -7.332,0 -13.712,-4.896 -17.076,-12.134 -1.222,-0.486 -2.465,-0.99 -3.719,-1.512 a 163.708,163.708 0 0 0 -5.438,2.549 34.827,34.827 0 0 0 1.784,4.63 C 12.461,51.577 7.352,51.178 5.987,50.479 7.4,47.657 21.396,38.192 51.675,28.55 81.95,18.909 98.844,18.538 101.629,20.021 c -0.711,1.361 -4.666,4.662 -13.255,9.061 A 35.032,35.032 0 0 0 87.333,24.76 c -5.75,0.766 -12.999,2.167 -21.582,4.405 0.156,1.209 0.256,2.44 0.256,3.701 0,4.577 -1.084,8.834 -2.928,12.462 A 287.772,287.772 0 0 1 51.675,41.948 283.934,283.934 0 0 1 39,37.591 233.784,233.784 0 0 0 31.556,40.489 c 5.746,2.297 11.985,4.531 18.482,6.599 1.247,0.397 29.759,9.414 45.843,9.414 0.569,0 1.126,-0.012 1.662,-0.035 5.388,-0.236 8.543,-1.685 9.379,-4.309 1.421,-4.462 -4.643,-9.999 -17.985,-16.462 z" />
  </g>
</svg>
